<svg width="1080" height="1080" viewBox="0 0 1080 1080" fill="none" xmlns="http://www.w3.org/2000/svg">
<g clip-path="url(#clip0_4_68)">
<rect width="1080" height="1080" fill="white"/>
<path d="M1617 0H-219V1080H1617V0Z" fill="#F2F2F2"/>
<path d="M1249.8 360.72V364.457C1249.8 560.822 1090.61 719.993 894.264 719.993H882.6V360.72H1249.8Z" fill="#452CE3"/>
<path d="M515.4 1080H882.6V719.993L515.4 1080Z" fill="#31C7AC"/>
<path d="M1249.8 1080H882.6V719.993L1249.8 1080Z" fill="#2A1A8F"/>
<path d="M-211.807 360.007H-219C-219 161.179 -57.8208 0 141.007 0H148.2C148.2 198.828 -12.9792 360.007 -211.807 360.007Z" fill="#452CE3"/>
<path d="M515.4 360.007H508.207C309.379 360.007 148.2 198.828 148.2 0H155.393C354.221 0 515.4 161.179 515.4 360.007Z" fill="#31C7AC"/>
<path d="M882.6 0H515.4V360.007H882.6V0Z" fill="#452CE3"/>
<path d="M1249.8 0H882.6V360.007H1249.8V0Z" fill="#F2F2F2"/>
<path d="M1249.8 179.993C1249.8 229.694 1229.65 274.709 1197.07 307.282C1196.79 307.562 1196.51 307.843 1196.23 308.102C1163.72 340.2 1119.08 360.007 1069.81 360.007H1062.59C963.19 360.007 882.6 279.418 882.6 179.993C882.6 130.291 902.753 85.2984 935.326 52.7256C935.477 52.5744 935.65 52.4232 935.801 52.2504C968.33 19.9584 1013.13 0 1062.59 0H1069.81C1169.21 0 1249.8 80.5896 1249.8 179.993Z" fill="#452CE3"/>
<path d="M1150.66 179.993C1150.66 202.867 1141.39 223.56 1126.4 238.55L1126.01 238.939C1125.99 238.961 1125.95 239.004 1125.92 239.026C1110.98 253.735 1090.48 262.807 1067.86 262.807H1064.54C1018.81 262.807 981.744 225.742 981.744 179.993C981.744 157.14 991.01 136.447 1006 121.457L1006.22 121.241C1021.19 106.38 1041.79 97.2 1064.54 97.2H1067.86C1113.59 97.2 1150.66 134.266 1150.66 179.993Z" fill="#F5F2DD"/>
<path d="M1249.8 179.993C1249.8 229.694 1229.65 274.709 1197.07 307.282C1196.79 307.562 1196.51 307.843 1196.23 308.102L935.801 52.2504C968.33 19.9584 1013.13 0 1062.59 0H1069.81C1169.21 0 1249.8 80.5896 1249.8 179.993Z" fill="#F22D3E"/>
<path d="M1150.66 179.993C1150.66 202.867 1141.39 223.56 1126.4 238.55L1126.01 238.939C1125.99 238.961 1125.95 239.004 1125.92 239.026L1006.13 121.327L1006.22 121.241C1021.19 106.38 1041.79 97.2 1064.54 97.2H1067.86C1113.59 97.2 1150.66 134.266 1150.66 179.993Z" fill="#31C7AC"/>
<path d="M148.2 719.993H141.007C-57.8208 719.993 -219 558.813 -219 360.007H-211.807C-12.9792 360.007 148.2 521.186 148.2 719.993Z" fill="#31C7AC"/>
<path d="M155.393 719.992H148.2C148.2 521.164 309.379 359.985 508.207 359.985H515.4C515.4 558.813 354.221 719.992 155.393 719.992Z" fill="#452CE3"/>
<path d="M882.6 360.007V719.993H515.4L882.6 360.007Z" fill="#452CE3"/>
<path d="M882.6 524.491V719.993H683.189L882.6 524.491Z" fill="#F22D3E"/>
<path d="M882.6 884.498V1080H683.189L882.6 884.498Z" fill="#F22D3E"/>
<path d="M1249.8 360.007V364.457C1249.8 560.822 1090.61 719.993 894.264 719.993H882.6V715.543C882.6 526.845 1029.59 372.492 1215.3 360.72C1222.84 360.245 1230.47 360.007 1238.14 360.007H1249.8Z" fill="#F22D3E"/>
<path d="M148.2 719.993H-219V1080H148.2V719.993Z" fill="#C93E3E"/>
<path d="M335.407 1080H148.2V719.993H335.407C434.81 719.993 515.4 800.582 515.4 899.986C515.4 999.41 434.81 1080 335.407 1080Z" fill="#31C7AC"/>
<path d="M1249.8 1080H1242.61C1043.78 1080 882.6 918.821 882.6 719.993H889.793C1088.62 719.993 1249.8 881.172 1249.8 1080Z" fill="#F22D3E"/>
<path d="M148.2 455.76C200.689 455.76 243.24 413.209 243.24 360.72C243.24 308.231 200.689 265.68 148.2 265.68C95.7108 265.68 53.1599 308.231 53.1599 360.72C53.1599 413.209 95.7108 455.76 148.2 455.76Z" fill="#C93E3E"/>
<path d="M1249.8 360.007V360.72L882.6 719.28V715.543C882.6 519.177 1041.79 360.007 1238.14 360.007H1249.8Z" fill="#31C7AC"/>
<path d="M1249.8 1080L883.334 719.993H889.793C1088.62 719.993 1249.8 881.172 1249.8 1080Z" fill="#31C7AC"/>
<path d="M515.854 0L515.4 0.4536V0H515.854Z" fill="#C93E3E"/>
<path d="M589.164 0L515.4 73.764V49.356L564.756 0H589.164Z" fill="#C93E3E"/>
<path d="M662.474 0L515.4 147.074V122.666L638.066 0H662.474Z" fill="#C93E3E"/>
<path d="M735.806 0L515.4 220.406V195.977L711.377 0H735.806Z" fill="#C93E3E"/>
<path d="M809.117 0L515.4 293.717V269.287L784.687 0H809.117Z" fill="#C93E3E"/>
<path d="M882.427 0L522.42 360.007H515.4V342.598L857.998 0H882.427Z" fill="#C93E3E"/>
<path d="M1.40642 719.993L-219 940.399V915.969L-23.0232 719.993H1.40642Z" fill="#F5DFD8"/>
<path d="M74.7168 719.993L-219 1013.71V989.28L50.2872 719.993H74.7168Z" fill="#F5DFD8"/>
<path d="M148.027 719.993L-211.98 1080H-219V1062.59L123.598 719.993H148.027Z" fill="#F5DFD8"/>
<path d="M331.8 1013.04C393.833 1013.04 444.12 962.753 444.12 900.72C444.12 838.687 393.833 788.4 331.8 788.4C269.767 788.4 219.48 838.687 219.48 900.72C219.48 962.753 269.767 1013.04 331.8 1013.04Z" fill="#C93E3E"/>
<path d="M331.8 954.72C361.623 954.72 385.8 930.543 385.8 900.72C385.8 870.897 361.623 846.72 331.8 846.72C301.977 846.72 277.8 870.897 277.8 900.72C277.8 930.543 301.977 954.72 331.8 954.72Z" fill="#F5DFD8"/>
</g>
<defs>
<clipPath id="clip0_4_68">
<rect width="1080" height="1080" fill="white"/>
</clipPath>
</defs>
</svg>
