<svg width="234" height="58" viewBox="0 0 234 58" fill="none" xmlns="http://www.w3.org/2000/svg">
<path d="M14.665 3.48032C17.8003 1.66759 21.1548 0.507307 24.5094 0C16.926 9.13605 15.4672 22.3329 21.7383 33.2093C28.0094 44.0857 40.2599 49.3789 52 47.4211C49.8123 50.0315 47.1872 52.3515 44.0519 54.092C29.9784 62.1405 12.0401 57.3548 3.94605 43.4331C-4.14803 29.5113 0.592007 11.6015 14.6652 3.48045L14.665 3.48032Z" fill="#222831"/>
<path d="M71.2 48.8H80.16L79.24 54H63.44L68.4 25.92H75.24L71.2 48.8ZM108.463 31.68L104.543 54H97.7025L98.2225 50.96C97.3425 51.9467 96.2625 52.7467 94.9825 53.36C93.7292 53.9467 92.3825 54.24 90.9425 54.24C88.7025 54.24 86.9425 53.6133 85.6625 52.36C84.3825 51.08 83.7425 49.3067 83.7425 47.04C83.7425 46.1867 83.8092 45.4133 83.9425 44.72L86.2625 31.68H93.0625L90.9425 43.8C90.8625 44.2267 90.8225 44.64 90.8225 45.04C90.8225 46.16 91.1292 47.0267 91.7425 47.64C92.3825 48.2267 93.2625 48.52 94.3825 48.52C95.6625 48.52 96.7425 48.1467 97.6225 47.4C98.5292 46.6267 99.1292 45.5333 99.4225 44.12L101.623 31.68H108.463ZM127.016 31.44C129.256 31.44 131.016 32.0667 132.296 33.32C133.576 34.5733 134.216 36.32 134.216 38.56C134.216 39.3067 134.136 40.1067 133.976 40.96L131.656 54H124.856L127.016 41.88C127.096 41.4267 127.136 41.0267 127.136 40.68C127.136 39.56 126.816 38.6933 126.176 38.08C125.562 37.4667 124.696 37.16 123.576 37.16C122.242 37.16 121.122 37.5733 120.216 38.4C119.309 39.2267 118.722 40.3867 118.456 41.88V41.68L116.296 54H109.456L113.376 31.68H120.216L119.696 34.68C120.576 33.6933 121.642 32.9067 122.896 32.32C124.176 31.7333 125.549 31.44 127.016 31.44ZM137.049 42.8C137.449 40.5067 138.235 38.4933 139.409 36.76C140.582 35.0267 141.995 33.6933 143.649 32.76C145.302 31.8267 147.049 31.36 148.889 31.36C150.462 31.36 151.782 31.68 152.849 32.32C153.915 32.96 154.689 33.8 155.169 34.84L155.729 31.68H162.569L158.609 54H151.769L152.369 50.84C151.515 51.88 150.435 52.72 149.129 53.36C147.822 54 146.382 54.32 144.809 54.32C143.235 54.32 141.835 53.96 140.609 53.24C139.409 52.52 138.475 51.5067 137.809 50.2C137.142 48.8667 136.809 47.3067 136.809 45.52C136.809 44.6667 136.889 43.76 137.049 42.8ZM153.769 42.84C153.849 42.36 153.889 41.92 153.889 41.52C153.889 40.2133 153.502 39.1867 152.729 38.44C151.982 37.6933 151.022 37.32 149.849 37.32C148.489 37.32 147.249 37.8133 146.129 38.8C145.009 39.76 144.302 41.0933 144.009 42.8C143.929 43.28 143.889 43.72 143.889 44.12C143.889 45.4267 144.262 46.4667 145.009 47.24C145.782 47.9867 146.742 48.36 147.889 48.36C149.249 48.36 150.489 47.8667 151.609 46.88C152.729 45.8933 153.449 44.5467 153.769 42.84ZM201.855 25.92L188.855 44.72L187.175 54H180.335L182.015 44.72L175.575 25.92H183.335L186.695 37.64L194.175 25.92H201.855ZM225.611 31.68L221.691 54H214.851L215.371 50.96C214.491 51.9467 213.411 52.7467 212.131 53.36C210.878 53.9467 209.531 54.24 208.091 54.24C205.851 54.24 204.091 53.6133 202.811 52.36C201.531 51.08 200.891 49.3067 200.891 47.04C200.891 46.1867 200.958 45.4133 201.091 44.72L203.411 31.68H210.211L208.091 43.8C208.011 44.2267 207.971 44.64 207.971 45.04C207.971 46.16 208.278 47.0267 208.891 47.64C209.531 48.2267 210.411 48.52 211.531 48.52C212.811 48.52 213.891 48.1467 214.771 47.4C215.678 46.6267 216.278 45.5333 216.571 44.12L218.771 31.68H225.611Z" fill="#222831"/>
</svg>
